<svg id="visual" viewBox="0 0 3000 1687" width="3000" height="1687" xmlns="http://www.w3.org/2000/svg" xmlns:xlink="http://www.w3.org/1999/xlink" version="1.1"><rect x="0" y="0" width="3000" height="1687" fill="#fefeff"></rect><defs><linearGradient id="grad1_0" x1="43.8%" y1="100%" x2="100%" y2="0%"><stop offset="14.433906342620038%" stop-color="#989ddf" stop-opacity="1"></stop><stop offset="85.56609365737995%" stop-color="#989ddf" stop-opacity="1"></stop></linearGradient></defs><defs><linearGradient id="grad1_1" x1="43.8%" y1="100%" x2="100%" y2="0%"><stop offset="14.433906342620038%" stop-color="#989ddf" stop-opacity="1"></stop><stop offset="85.56609365737995%" stop-color="#ccccef" stop-opacity="1"></stop></linearGradient></defs><defs><linearGradient id="grad1_2" x1="43.8%" y1="100%" x2="100%" y2="0%"><stop offset="14.433906342620038%" stop-color="#fefeff" stop-opacity="1"></stop><stop offset="85.56609365737995%" stop-color="#ccccef" stop-opacity="1"></stop></linearGradient></defs><defs><linearGradient id="grad2_0" x1="0%" y1="100%" x2="56.2%" y2="0%"><stop offset="14.433906342620038%" stop-color="#989ddf" stop-opacity="1"></stop><stop offset="85.56609365737995%" stop-color="#989ddf" stop-opacity="1"></stop></linearGradient></defs><defs><linearGradient id="grad2_1" x1="0%" y1="100%" x2="56.2%" y2="0%"><stop offset="14.433906342620038%" stop-color="#ccccef" stop-opacity="1"></stop><stop offset="85.56609365737995%" stop-color="#989ddf" stop-opacity="1"></stop></linearGradient></defs><defs><linearGradient id="grad2_2" x1="0%" y1="100%" x2="56.2%" y2="0%"><stop offset="14.433906342620038%" stop-color="#ccccef" stop-opacity="1"></stop><stop offset="85.56609365737995%" stop-color="#fefeff" stop-opacity="1"></stop></linearGradient></defs><g transform="translate(3000, 1687)"><path d="M-1265.2 0C-1261.4 -175.3 -1257.5 -350.5 -1168.9 -484.2C-1080.4 -617.8 -907.3 -709.9 -760.8 -760.8C-614.4 -811.8 -494.7 -821.7 -372.4 -898.9C-250 -976.2 -125 -1120.7 0 -1265.2L0 0Z" fill="#e5e5f7"></path><path d="M-843.5 0C-840.9 -116.8 -838.3 -233.7 -779.3 -322.8C-720.3 -411.9 -604.9 -473.3 -507.2 -507.2C-409.6 -541.2 -329.8 -547.8 -248.2 -599.3C-166.7 -650.8 -83.3 -747.1 0 -843.5L0 0Z" fill="#b2b4e7"></path><path d="M-421.7 0C-420.5 -58.4 -419.2 -116.8 -389.6 -161.4C-360.1 -205.9 -302.4 -236.6 -253.6 -253.6C-204.8 -270.6 -164.9 -273.9 -124.1 -299.6C-83.3 -325.4 -41.7 -373.6 0 -421.7L0 0Z" fill="#989ddf"></path></g><g transform="translate(0, 0)"><path d="M1265.3 0C1268.1 183.2 1271 366.5 1168.9 484.2C1066.8 601.9 859.7 654.1 719.1 719.1C578.5 784.2 504.5 862.1 395.7 955.3C286.9 1048.5 143.5 1156.9 0 1265.3L0 0Z" fill="#e5e5f7"></path><path d="M843.5 0C845.4 122.2 847.4 244.3 779.3 322.8C711.2 401.3 573.1 436 479.4 479.4C385.7 522.8 336.3 574.7 263.8 636.9C191.3 699 95.6 771.2 0 843.5L0 0Z" fill="#b2b4e7"></path><path d="M421.8 0C422.7 61.1 423.7 122.2 389.6 161.4C355.6 200.6 286.6 218 239.7 239.7C192.8 261.4 168.2 287.4 131.9 318.4C95.6 349.5 47.8 385.6 0 421.8L0 0Z" fill="#989ddf"></path></g></svg>